<svg width="290" height="100" viewBox="0 0 290 100" fill="none" xmlns="http://www.w3.org/2000/svg">
<path d="M42.3583 34.4418C46.268 34.4418 49.4374 31.1451 49.4374 27.0784C49.4374 23.0117 46.268 19.7149 42.3583 19.7149C38.4487 19.7149 35.2793 23.0117 35.2793 27.0784C35.2793 31.1451 38.4487 34.4418 42.3583 34.4418Z" fill="#3D7FE0"/>
<path d="M65.8 39.1924C69.7096 39.1924 72.879 35.8957 72.879 31.829C72.879 27.7623 69.7096 24.4656 65.8 24.4656C61.8903 24.4656 58.7209 27.7623 58.7209 31.829C58.7209 35.8957 61.8903 39.1924 65.8 39.1924Z" fill="#2BBAE7"/>
<path d="M73.2275 63.4204C77.1371 63.4204 80.3065 60.1237 80.3065 56.057C80.3065 51.9903 77.1371 48.6935 73.2275 48.6935C69.3178 48.6935 66.1484 51.9903 66.1484 56.057C66.1484 60.1237 69.3178 63.4204 73.2275 63.4204Z" fill="#4ABC90"/>
<path d="M56.7482 80.9976C60.6579 80.9976 63.8273 77.7009 63.8273 73.6342C63.8273 69.5675 60.6579 66.2708 56.7482 66.2708C52.8386 66.2708 49.6692 69.5675 49.6692 73.6342C49.6692 77.7009 52.8386 80.9976 56.7482 80.9976Z" fill="#FFD101"/>
<path d="M32.842 75.5345C36.7516 75.5345 39.921 72.2378 39.921 68.1711C39.921 64.1044 36.7516 60.8077 32.842 60.8077C28.9323 60.8077 25.7629 64.1044 25.7629 68.1711C25.7629 72.2378 28.9323 75.5345 32.842 75.5345Z" fill="#FF7D42"/>
<path d="M25.6471 50.8314C29.5568 50.8314 32.7262 47.5346 32.7262 43.4679C32.7262 39.4012 29.5568 36.1045 25.6471 36.1045C21.7375 36.1045 18.5681 39.4012 18.5681 43.4679C18.5681 47.5346 21.7375 50.8314 25.6471 50.8314Z" fill="#FF5072"/>
<path d="M49.7852 59.6198C54.7203 59.6198 58.721 55.5255 58.721 50.4749C58.721 45.4243 54.7203 41.33 49.7852 41.33C44.8501 41.33 40.8494 45.4243 40.8494 50.4749C40.8494 55.5255 44.8501 59.6198 49.7852 59.6198Z" fill="#1CCCC4"/>
<path d="M36.4394 11.639C39.6441 11.639 42.2419 9.03349 42.2419 5.81948C42.2419 2.60547 39.6441 0 36.4394 0C33.2348 0 30.637 2.60547 30.637 5.81948C30.637 9.03349 33.2348 11.639 36.4394 11.639Z" fill="#3D7FE0"/>
<path d="M80.0742 20.9026C83.2788 20.9026 85.8767 18.2971 85.8767 15.0831C85.8767 11.8691 83.2788 9.26364 80.0742 9.26364C76.8696 9.26364 74.2717 11.8691 74.2717 15.0831C74.2717 18.2971 76.8696 20.9026 80.0742 20.9026Z" fill="#2BBAE7"/>
<path d="M93.0718 67.9336C96.2764 67.9336 98.8743 65.3281 98.8743 62.1141C98.8743 58.9001 96.2764 56.2947 93.0718 56.2947C89.8672 56.2947 87.2693 58.9001 87.2693 62.1141C87.2693 65.3281 89.8672 67.9336 93.0718 67.9336Z" fill="#4ABC90"/>
<path d="M62.2026 100C65.4072 100 68.0051 97.3945 68.0051 94.1805C68.0051 90.9665 65.4072 88.361 62.2026 88.361C58.998 88.361 56.4001 90.9665 56.4001 94.1805C56.4001 97.3945 58.998 100 62.2026 100Z" fill="#FFD101"/>
<path d="M17.4075 89.3111C20.6121 89.3111 23.2099 86.7057 23.2099 83.4916C23.2099 80.2776 20.6121 77.6722 17.4075 77.6722C14.2028 77.6722 11.605 80.2776 11.605 83.4916C11.605 86.7057 14.2028 89.3111 17.4075 89.3111Z" fill="#FF7D42"/>
<path d="M5.80248 45.3682C9.0071 45.3682 11.605 42.7627 11.605 39.5487C11.605 36.3347 9.0071 33.7292 5.80248 33.7292C2.59786 33.7292 0 36.3347 0 39.5487C0 42.7627 2.59786 45.3682 5.80248 45.3682Z" fill="#FF5072"/>
<path d="M162.917 22.8057H143.029V4.58222H136V48.4178H143.029V28.826H162.917V48.4178H169.975V4.58222H162.917V22.8057ZM188.445 22.8057V10.6316H209.462V4.58222H181.417V48.4178H209.753V42.3975H188.445V28.826H206.788V22.8057H188.445ZM244.541 4.58222L232.965 38.0498L221.445 4.58222H213.814L230.018 48.4178H235.967L252.201 4.58222H244.541ZM290 27.8682V25.19C290 20.9591 289.339 17.243 288.019 14.0404C286.68 10.794 284.758 8.30695 282.262 6.58749C279.76 4.86456 276.866 4 273.597 4C270.381 4 267.512 4.87509 265.01 6.61887C262.515 8.35706 260.586 10.8568 259.23 14.1106C257.891 17.3236 257.221 21.0167 257.221 25.19V28.2424C257.258 32.3485 257.951 35.96 259.301 39.0871C260.666 42.2505 262.595 44.6947 265.079 46.4118C267.572 48.1352 270.435 49 273.651 49C276.938 49 279.828 48.1399 282.303 46.426C284.772 44.7166 286.68 42.2452 288.018 39.0193C289.339 35.8356 290 32.1193 290 27.8682ZM282.98 25.1315V28.2755C282.93 32.9568 282.067 36.5038 280.434 38.9125C278.876 41.2115 276.732 42.3321 273.876 42.3321C271.048 42.3321 268.883 41.144 267.259 38.6905C265.56 36.1243 264.693 32.5218 264.693 27.8679V24.7531C264.743 20.2095 265.625 16.7036 267.303 14.2335C268.908 11.8713 271.041 10.7256 273.823 10.7256C276.695 10.7256 278.866 11.8732 280.46 14.2313C282.125 16.6942 282.98 20.3244 282.98 25.1315Z" fill="#121212"/>
<path d="M167.141 69.1423V94.7577H162.247V69.1423H167.141Z" fill="#121212"/>
<path d="M181.08 72.2577C179.645 72.1654 178.639 72.3731 178.06 72.8808C177.482 73.3885 177.192 74.2769 177.192 75.5462V75.5808H181.08V79.7H177.192V94.7577H172.298V79.7H169.833V75.5808H172.298V75.1308C172.298 72.8462 172.946 71.0923 174.242 69.8692C175.561 68.6231 177.505 68 180.074 68C180.513 68 180.849 68.0115 181.08 68.0346V72.2577Z" fill="#121212"/>
<path d="M188.905 79.25C189.622 78.0269 190.571 77.0692 191.751 76.3769C192.931 75.6615 194.25 75.3038 195.708 75.3038V80.5308H194.285C190.698 80.5308 188.905 82.1923 188.905 85.5154V94.7577H184.01V75.5808H188.905V79.25Z" fill="#121212"/>
<path d="M216.503 84.4423C216.503 84.9269 216.445 85.4808 216.329 86.1038H202.236C202.305 87.8115 202.768 89.0692 203.624 89.8769C204.48 90.6846 205.545 91.0885 206.818 91.0885C207.952 91.0885 208.889 90.8115 209.63 90.2577C210.393 89.7038 210.879 88.9538 211.087 88.0077H216.26C216.005 89.3462 215.461 90.5462 214.628 91.6077C213.795 92.6692 212.719 93.5 211.4 94.1C210.104 94.7 208.658 95 207.061 95C205.186 95 203.52 94.6077 202.062 93.8231C200.604 93.0154 199.47 91.8731 198.66 90.3962C197.85 88.9192 197.445 87.1769 197.445 85.1692C197.445 83.1615 197.85 81.4192 198.66 79.9423C199.47 78.4423 200.604 77.3 202.062 76.5154C203.52 75.7308 205.186 75.3385 207.061 75.3385C208.958 75.3385 210.613 75.7308 212.025 76.5154C213.46 77.3 214.559 78.3846 215.322 79.7692C216.109 81.1308 216.503 82.6885 216.503 84.4423ZM211.573 83.9577C211.643 82.3885 211.226 81.2 210.324 80.3923C209.444 79.5846 208.357 79.1808 207.061 79.1808C205.742 79.1808 204.631 79.5846 203.728 80.3923C202.826 81.2 202.328 82.3885 202.236 83.9577H211.573Z" fill="#121212"/>
<path d="M227.51 75.3385C229.13 75.3385 230.507 75.7192 231.641 76.4808C232.798 77.2423 233.631 78.2692 234.14 79.5615V69.1423H239V94.7577H234.14V90.7423C233.631 92.0346 232.798 93.0731 231.641 93.8577C230.507 94.6192 229.13 95 227.51 95C225.89 95 224.432 94.6077 223.136 93.8231C221.84 93.0385 220.822 91.9077 220.081 90.4308C219.364 88.9308 219.005 87.1769 219.005 85.1692C219.005 83.1615 219.364 81.4192 220.081 79.9423C220.822 78.4423 221.84 77.3 223.136 76.5154C224.432 75.7308 225.89 75.3385 227.51 75.3385ZM229.037 79.5962C227.51 79.5962 226.283 80.0923 225.358 81.0846C224.432 82.0769 223.969 83.4385 223.969 85.1692C223.969 86.9 224.432 88.2615 225.358 89.2538C226.283 90.2231 227.51 90.7077 229.037 90.7077C230.518 90.7077 231.733 90.2115 232.682 89.2192C233.654 88.2038 234.14 86.8538 234.14 85.1692C234.14 83.4615 233.654 82.1115 232.682 81.1192C231.733 80.1038 230.518 79.5962 229.037 79.5962Z" fill="#121212"/>
<path d="M146.335 75.365C147.968 75.365 149.368 75.75 150.535 76.52C151.702 77.29 152.53 78.3283 153.02 79.635V75.61H157.92V95H153.02V90.94C152.53 92.2467 151.702 93.2967 150.535 94.09C149.368 94.86 147.968 95.245 146.335 95.245C144.702 95.245 143.232 94.8483 141.925 94.055C140.618 93.2617 139.592 92.1183 138.845 90.625C138.122 89.1083 137.76 87.335 137.76 85.305C137.76 83.275 138.122 81.5133 138.845 80.02C139.592 78.5033 140.618 77.3483 141.925 76.555C143.232 75.7617 144.702 75.365 146.335 75.365ZM147.875 79.67C146.335 79.67 145.098 80.1717 144.165 81.175C143.232 82.1783 142.765 83.555 142.765 85.305C142.765 87.055 143.232 88.4317 144.165 89.435C145.098 90.415 146.335 90.905 147.875 90.905C149.368 90.905 150.593 90.4033 151.55 89.4C152.53 88.3733 153.02 87.0083 153.02 85.305C153.02 83.5783 152.53 82.2133 151.55 81.21C150.593 80.1833 149.368 79.67 147.875 79.67Z" fill="#121212"/>
</svg>
